<svg width="32" height="32" viewBox="0 0 32 32" fill="none" xmlns="http://www.w3.org/2000/svg">
<rect width="32" height="32" rx="16" fill="#1D1B20"/>
<path d="M8.02131 17.0085V23H5.14702V9.18182H7.94034V14.4648H8.06179C8.29569 13.8531 8.67353 13.3741 9.19531 13.0277C9.71709 12.6768 10.3716 12.5014 11.1587 12.5014C11.8784 12.5014 12.5059 12.6589 13.0412 12.9737C13.581 13.2841 13.9993 13.7317 14.2962 14.3164C14.5975 14.8967 14.746 15.5916 14.7415 16.4013V23H11.8672V16.9141C11.8717 16.2753 11.7098 15.7783 11.3814 15.4229C11.0575 15.0676 10.6032 14.8899 10.0185 14.8899C9.62713 14.8899 9.28078 14.9731 8.9794 15.1396C8.68253 15.306 8.44863 15.5489 8.2777 15.8683C8.11127 16.1831 8.02581 16.5632 8.02131 17.0085ZM19.6878 17.0085V23H16.8135V9.18182H19.6068V14.4648H19.7282C19.9621 13.8531 20.34 13.3741 20.8618 13.0277C21.3835 12.6768 22.038 12.5014 22.8252 12.5014C23.5449 12.5014 24.1724 12.6589 24.7076 12.9737C25.2474 13.2841 25.6657 13.7317 25.9626 14.3164C26.264 14.8967 26.4124 15.5916 26.4079 16.4013V23H23.5336V16.9141C23.5381 16.2753 23.3762 15.7783 23.0478 15.4229C22.724 15.0676 22.2697 14.8899 21.6849 14.8899C21.2936 14.8899 20.9472 14.9731 20.6458 15.1396C20.349 15.306 20.1151 15.5489 19.9441 15.8683C19.7777 16.1831 19.6923 16.5632 19.6878 17.0085Z" fill="white"/>
</svg>
